<svg width="172" height="113" viewBox="0 0 172 113" fill="none" xmlns="http://www.w3.org/2000/svg">
<path d="M0 5C0 2.23858 2.23858 0 5 0H86V113H5C2.23858 113 0 110.761 0 108V5Z" fill="#F2F2F2"/>
<rect x="10" y="10" width="68" height="6" rx="3" fill="#C4C4C4"/>
<rect x="10" y="100" width="68" height="6" rx="3" fill="#C4C4C4"/>
<path d="M86 0H167C169.761 0 172 2.23858 172 5V108C172 110.761 169.761 113 167 113H86V0Z" fill="#F2F2F2"/>
<rect x="93" y="100" width="68" height="6" rx="3" fill="#C4C4C4"/>
<rect x="93" y="10" width="68" height="6" rx="3" fill="#C4C4C4"/>
<circle cx="144.5" cy="60.5" r="12.5" fill="#C4C4C4"/>
<rect x="106" y="24" width="55" height="24" rx="5" fill="#C4C4C4"/>
</svg>
