<svg width="121" height="110" viewBox="0 0 121 110" fill="none" xmlns="http://www.w3.org/2000/svg">
<g clip-path="url(#clip0_414_16584)">
<path d="M103.936 10.1146L2.88184 39.5576L5.55847 48.7444L106.613 19.3014L103.936 10.1146Z" fill="#3F3D56"/>
<path d="M14.955 81.7559L0.0603955 30.6348C-0.0500289 30.2558 -0.00536543 29.8484 0.184554 29.5023C0.374473 29.1562 0.694091 28.8998 1.0731 28.7893L99.6775 0.0600803C100.056 -0.049973 100.464 -0.00515824 100.81 0.184693C101.156 0.374544 101.412 0.693917 101.523 1.07271L114.718 46.3623L114.31 46.4813L101.115 1.1917C101.035 0.921242 100.852 0.693247 100.605 0.55766C100.358 0.422073 100.067 0.389948 99.7964 0.468327L1.19206 29.1976C0.921339 29.2765 0.693041 29.4597 0.557385 29.7069C0.421729 29.9541 0.389826 30.2451 0.468697 30.5158L15.3633 81.6369L14.955 81.7559Z" fill="#3F3D56"/>
<path d="M92.8943 46.573C92.5951 46.5727 92.3041 46.4755 92.0648 46.296C91.8254 46.1165 91.6507 45.8643 91.5667 45.5772L89.0685 37.0029C88.9664 36.651 89.008 36.2729 89.1843 35.9517C89.3606 35.6304 89.6571 35.3922 90.0088 35.2893L98.5831 32.7911C98.9351 32.689 99.3131 32.7307 99.6344 32.907C99.9556 33.0833 100.194 33.3799 100.297 33.7316L102.795 42.3059C102.897 42.6578 102.855 43.0358 102.679 43.3571C102.503 43.6783 102.206 43.9165 101.855 44.0194L93.2802 46.5176C93.1548 46.5543 93.0249 46.5729 92.8943 46.573Z" fill="#7BA3F2"/>
<path d="M14.7249 30.7921C14.6993 30.704 14.6687 30.6174 14.6335 30.5327C14.3937 29.9508 13.9474 29.4781 13.3803 29.2053C12.8132 28.9325 12.1652 28.8789 11.561 29.0548C10.9568 29.2308 10.4389 29.6238 10.1068 30.1584C9.77472 30.6929 9.65192 31.3314 9.76199 31.951C9.77745 32.0414 9.79804 32.1309 9.82366 32.2189C9.97894 32.749 10.3017 33.2144 10.7437 33.5456C11.1857 33.8768 11.723 34.0559 12.2753 34.0561C12.5165 34.0567 12.7564 34.0223 12.9877 33.9541C13.6369 33.7644 14.1843 33.325 14.51 32.7322C14.8357 32.1395 14.913 31.4418 14.7249 30.7921ZM12.8686 33.5458C12.3272 33.7029 11.7456 33.6389 11.2514 33.3679C10.7571 33.0968 10.3905 32.6408 10.2319 32.0999C10.207 32.0117 10.1871 31.9223 10.1723 31.8319C10.0926 31.3214 10.2015 30.7993 10.4787 30.3633C10.756 29.9272 11.1825 29.6071 11.6787 29.4628C12.1748 29.3184 12.7065 29.3597 13.1744 29.5789C13.6423 29.7982 14.0144 30.1803 14.221 30.6539C14.2595 30.7371 14.2915 30.8231 14.3167 30.9112C14.4736 31.4526 14.4092 32.0341 14.1377 32.5281C13.8662 33.0221 13.4098 33.3881 12.8686 33.5458V33.5458Z" fill="#7BA3F2"/>
<path d="M8.46622 32.6154C8.33014 32.1481 8.34321 31.6499 8.50361 31.1904C8.66401 30.7308 8.96375 30.3328 9.36108 30.0516C8.98883 30.0335 8.61764 30.1045 8.27842 30.2589C7.9392 30.4133 7.64178 30.6465 7.41093 30.939C7.18009 31.2316 7.02249 31.5751 6.95129 31.941C6.88008 32.3068 6.89733 32.6843 7.00158 33.0421C7.10583 33.4 7.29407 33.7277 7.55063 33.998C7.80718 34.2683 8.12462 34.4734 8.4765 34.5962C8.82837 34.719 9.20449 34.756 9.57354 34.704C9.94258 34.652 10.2939 34.5126 10.5981 34.2973C10.112 34.2736 9.6453 34.0988 9.26317 33.7973C8.88104 33.4959 8.60245 33.0827 8.46622 32.6154Z" fill="#7BA3F2"/>
<path d="M74.5672 43.1535C74.522 42.9908 74.4451 42.8386 74.341 42.7056C74.2368 42.5726 74.1075 42.4615 73.9604 42.3785C73.8132 42.2956 73.6512 42.2424 73.4835 42.2222C73.3158 42.2019 73.1458 42.2149 72.9832 42.2604L58.866 46.2091L57.3457 46.6344H66.8932L68.4135 46.2091L73.6763 44.7376C74.0044 44.6455 74.2825 44.4269 74.4495 44.1299C74.6166 43.8329 74.6589 43.4817 74.5672 43.1535Z" fill="#CCCCCC"/>
<path d="M64.5799 40.2042C64.4879 39.876 64.2693 39.5977 63.9722 39.4307C63.6752 39.2636 63.3239 39.2213 62.9957 39.3132L41.8127 45.2373C41.5167 45.3212 41.2604 45.508 41.09 45.7642C40.9196 46.0203 40.8464 46.3289 40.8834 46.6343H46.3674L47.8898 46.2091L63.6889 41.7904C64.0172 41.698 64.2955 41.479 64.4625 41.1816C64.6296 40.8842 64.6718 40.5327 64.5799 40.2042Z" fill="#CCCCCC"/>
<path d="M119.114 46.208H16.4094C16.0147 46.2085 15.6364 46.3654 15.3574 46.6445C15.0783 46.9235 14.9213 47.3018 14.9209 47.6965V108.511C14.9213 108.906 15.0783 109.284 15.3573 109.563C15.6364 109.842 16.0147 109.999 16.4094 110H119.114C119.509 109.999 119.887 109.842 120.166 109.563C120.445 109.284 120.602 108.906 120.602 108.511V47.6965C120.602 47.3019 120.445 46.9235 120.166 46.6445C119.887 46.3654 119.509 46.2085 119.114 46.208ZM120.177 108.511C120.177 108.793 120.065 109.063 119.866 109.263C119.666 109.462 119.396 109.574 119.114 109.574H16.4094C16.1274 109.574 15.8571 109.462 15.6577 109.263C15.4583 109.063 15.3463 108.793 15.3462 108.511V47.6965C15.3463 47.4145 15.4583 47.1442 15.6577 46.9448C15.8571 46.7455 16.1274 46.6334 16.4094 46.6333H119.114C119.396 46.6334 119.666 46.7455 119.866 46.9448C120.065 47.1442 120.177 47.4145 120.177 47.6965V108.511Z" fill="#3F3D56"/>
<path d="M26.4022 54.5018C25.8976 54.5018 25.4042 54.3521 24.9846 54.0717C24.565 53.7914 24.2379 53.3928 24.0448 52.9266C23.8517 52.4603 23.8012 51.9473 23.8996 51.4523C23.9981 50.9573 24.2411 50.5027 24.598 50.1458C24.9548 49.7889 25.4095 49.5459 25.9044 49.4475C26.3994 49.349 26.9125 49.3995 27.3787 49.5927C27.845 49.7858 28.2435 50.1129 28.5239 50.5325C28.8043 50.9521 28.9539 51.4454 28.9539 51.9501C28.9531 52.6266 28.6841 53.2752 28.2057 53.7535C27.7273 54.2319 27.0788 54.501 26.4022 54.5018ZM26.4022 49.8237C25.9817 49.8237 25.5706 49.9484 25.2209 50.1821C24.8712 50.4157 24.5987 50.7478 24.4377 51.1364C24.2768 51.5249 24.2347 51.9525 24.3167 52.3649C24.3988 52.7774 24.6013 53.1563 24.8987 53.4537C25.1961 53.7511 25.5749 53.9536 25.9874 54.0356C26.3999 54.1177 26.8274 54.0756 27.216 53.9146C27.6045 53.7537 27.9366 53.4811 28.1703 53.1315C28.4039 52.7818 28.5286 52.3707 28.5286 51.9501C28.528 51.3863 28.3038 50.8459 27.9051 50.4472C27.5065 50.0486 26.966 49.8243 26.4022 49.8237Z" fill="#7BA3F2"/>
<path d="M22.4367 51.9503C22.4368 51.4636 22.5886 50.989 22.8712 50.5927C23.1537 50.1963 23.5529 49.898 24.013 49.7392C23.6607 49.6177 23.2844 49.5821 22.9156 49.6354C22.5467 49.6887 22.1959 49.8294 21.8924 50.0457C21.589 50.262 21.3416 50.5478 21.1709 50.8791C21.0002 51.2104 20.9111 51.5777 20.9111 51.9504C20.9111 52.323 21.0002 52.6903 21.1709 53.0216C21.3416 53.3529 21.589 53.6387 21.8924 53.855C22.1959 54.0713 22.5467 54.212 22.9156 54.2653C23.2844 54.3186 23.6607 54.283 24.013 54.1615C23.5529 54.0027 23.1537 53.7044 22.8712 53.308C22.5887 52.9117 22.4368 52.4371 22.4367 51.9503Z" fill="#7BA3F2"/>
<path d="M36.7468 82.098C36.2394 82.0975 35.7529 81.8956 35.3942 81.5369C35.0354 81.1781 34.8336 80.6917 34.833 80.1843V74.443C34.833 73.9355 35.0346 73.4487 35.3935 73.0898C35.7524 72.7309 36.2392 72.5293 36.7468 72.5293C37.2543 72.5293 37.7411 72.7309 38.1 73.0898C38.4589 73.4487 38.6605 73.9355 38.6605 74.443V80.1843C38.6599 80.6917 38.4581 81.1781 38.0993 81.5369C37.7406 81.8956 37.2541 82.0975 36.7468 82.098Z" fill="#7BA3F2"/>
<path d="M41.8493 82.098C41.3419 82.0975 40.8555 81.8956 40.4967 81.5369C40.1379 81.1781 39.9361 80.6917 39.9355 80.1843V74.443C39.9355 73.9355 40.1372 73.4487 40.4961 73.0898C40.855 72.7309 41.3417 72.5293 41.8493 72.5293C42.3568 72.5293 42.8436 72.7309 43.2025 73.0898C43.5614 73.4487 43.763 73.9355 43.763 74.443V80.1843C43.7625 80.6917 43.5606 81.1781 43.2019 81.5369C42.8431 81.8956 42.3567 82.0975 41.8493 82.098Z" fill="#7BA3F2"/>
<path d="M46.9528 82.098C46.4454 82.0975 45.959 81.8956 45.6002 81.5369C45.2415 81.1781 45.0396 80.6917 45.0391 80.1843V74.443C45.0391 73.9355 45.2407 73.4487 45.5996 73.0898C45.9585 72.7309 46.4453 72.5293 46.9528 72.5293C47.4604 72.5293 47.9471 72.7309 48.306 73.0898C48.6649 73.4487 48.8666 73.9355 48.8666 74.443V80.1843C48.866 80.6917 48.6642 81.1781 48.3054 81.5369C47.9466 81.8956 47.4602 82.0975 46.9528 82.098Z" fill="#7BA3F2"/>
<path d="M54.821 82.098C54.3136 82.0975 53.8272 81.8956 53.4684 81.5369C53.1096 81.1781 52.9078 80.6917 52.9072 80.1843V74.443C52.9072 73.9355 53.1089 73.4487 53.4678 73.0898C53.8266 72.7309 54.3134 72.5293 54.821 72.5293C55.3285 72.5293 55.8153 72.7309 56.1742 73.0898C56.5331 73.4487 56.7347 73.9355 56.7347 74.443V80.1843C56.7341 80.6917 56.5323 81.1781 56.1736 81.5369C55.8148 81.8956 55.3284 82.0975 54.821 82.098Z" fill="#7BA3F2"/>
<path d="M59.9235 82.098C59.4161 82.0975 58.9297 81.8956 58.5709 81.5369C58.2122 81.1781 58.0103 80.6917 58.0098 80.1843V74.443C58.0098 73.9355 58.2114 73.4487 58.5703 73.0898C58.9292 72.7309 59.416 72.5293 59.9235 72.5293C60.4311 72.5293 60.9178 72.7309 61.2767 73.0898C61.6356 73.4487 61.8373 73.9355 61.8373 74.443V80.1843C61.8367 80.6917 61.6349 81.1781 61.2761 81.5369C60.9173 81.8956 60.4309 82.0975 59.9235 82.098Z" fill="#7BA3F2"/>
<path d="M65.027 82.098C64.5196 82.0975 64.0332 81.8956 63.6745 81.5369C63.3157 81.1781 63.1139 80.6917 63.1133 80.1843V74.443C63.1133 73.9355 63.3149 73.4487 63.6738 73.0898C64.0327 72.7309 64.5195 72.5293 65.027 72.5293C65.5346 72.5293 66.0214 72.7309 66.3803 73.0898C66.7391 73.4487 66.9408 73.9355 66.9408 74.443V80.1843C66.9402 80.6917 66.7384 81.1781 66.3796 81.5369C66.0208 81.8956 65.5344 82.0975 65.027 82.098Z" fill="#7BA3F2"/>
<path d="M72.8952 82.098C72.3878 82.0975 71.9014 81.8956 71.5426 81.5369C71.1838 81.1781 70.982 80.6917 70.9814 80.1843V74.443C70.9814 73.9355 71.1831 73.4487 71.542 73.0898C71.9009 72.7309 72.3876 72.5293 72.8952 72.5293C73.4028 72.5293 73.8895 72.7309 74.2484 73.0898C74.6073 73.4487 74.8089 73.9355 74.8089 74.443V80.1843C74.8084 80.6917 74.6065 81.1781 74.2478 81.5369C73.889 81.8956 73.4026 82.0975 72.8952 82.098Z" fill="#7BA3F2"/>
<path d="M77.9977 82.098C77.4904 82.0975 77.0039 81.8956 76.6452 81.5369C76.2864 81.1781 76.0846 80.6917 76.084 80.1843V74.443C76.084 73.9355 76.2856 73.4487 76.6445 73.0898C77.0034 72.7309 77.4902 72.5293 77.9977 72.5293C78.5053 72.5293 78.9921 72.7309 79.351 73.0898C79.7099 73.4487 79.9115 73.9355 79.9115 74.443V80.1843C79.9109 80.6917 79.7091 81.1781 79.3503 81.5369C78.9915 81.8956 78.5051 82.0975 77.9977 82.098Z" fill="#7BA3F2"/>
<path d="M83.1012 82.098C82.5939 82.0975 82.1074 81.8956 81.7487 81.5369C81.3899 81.1781 81.1881 80.6917 81.1875 80.1843V74.443C81.1875 73.9355 81.3891 73.4487 81.748 73.0898C82.1069 72.7309 82.5937 72.5293 83.1012 72.5293C83.6088 72.5293 84.0956 72.7309 84.4545 73.0898C84.8134 73.4487 85.015 73.9355 85.015 74.443V80.1843C85.0144 80.6917 84.8126 81.1781 84.4538 81.5369C84.0951 81.8956 83.6086 82.0975 83.1012 82.098Z" fill="#7BA3F2"/>
<path d="M90.9694 82.098C90.462 82.0975 89.9756 81.8956 89.6168 81.5369C89.2581 81.1781 89.0562 80.6917 89.0557 80.1843V74.443C89.0557 73.9355 89.2573 73.4487 89.6162 73.0898C89.9751 72.7309 90.4619 72.5293 90.9694 72.5293C91.477 72.5293 91.9637 72.7309 92.3226 73.0898C92.6815 73.4487 92.8832 73.9355 92.8832 74.443V80.1843C92.8826 80.6917 92.6808 81.1781 92.322 81.5369C91.9632 81.8956 91.4768 82.0975 90.9694 82.098Z" fill="#7BA3F2"/>
<path d="M96.072 82.098C95.5646 82.0975 95.0781 81.8956 94.7194 81.5369C94.3606 81.1781 94.1588 80.6917 94.1582 80.1843V74.443C94.1582 73.9355 94.3598 73.4487 94.7187 73.0898C95.0776 72.7309 95.5644 72.5293 96.072 72.5293C96.5795 72.5293 97.0663 72.7309 97.4252 73.0898C97.7841 73.4487 97.9857 73.9355 97.9857 74.443V80.1843C97.9851 80.6917 97.7833 81.1781 97.4245 81.5369C97.0658 81.8956 96.5793 82.0975 96.072 82.098Z" fill="#7BA3F2"/>
<path d="M101.175 82.098C100.668 82.0975 100.182 81.8956 99.8229 81.5369C99.4641 81.1781 99.2623 80.6917 99.2617 80.1843V74.443C99.2617 73.9355 99.4633 73.4487 99.8222 73.0898C100.181 72.7309 100.668 72.5293 101.175 72.5293C101.683 72.5293 102.17 72.7309 102.529 73.0898C102.888 73.4487 103.089 73.9355 103.089 74.443V80.1843C103.089 80.6917 102.887 81.1781 102.528 81.5369C102.169 81.8956 101.683 82.0975 101.175 82.098Z" fill="#7BA3F2"/>
<path d="M49.721 103.397H22.197C21.856 103.397 21.5289 103.262 21.2878 103.02C21.0466 102.779 20.9111 102.452 20.9111 102.111C20.9111 101.77 21.0466 101.443 21.2878 101.202C21.5289 100.961 21.856 100.825 22.197 100.825H49.721C50.0621 100.825 50.3892 100.961 50.6303 101.202C50.8715 101.443 51.0069 101.77 51.0069 102.111C51.0069 102.452 50.8715 102.779 50.6303 103.02C50.3892 103.262 50.0621 103.397 49.721 103.397Z" fill="#E6E6E6"/>
<path d="M40.8963 97.8687H31.0213C30.6802 97.8687 30.3531 97.7332 30.112 97.492C29.8708 97.2509 29.7354 96.9238 29.7354 96.5828C29.7354 96.2417 29.8708 95.9147 30.112 95.6735C30.3531 95.4324 30.6802 95.2969 31.0213 95.2969H40.8963C41.2373 95.2969 41.5644 95.4324 41.8055 95.6735C42.0467 95.9147 42.1822 96.2417 42.1822 96.5828C42.1822 96.9238 42.0467 97.2509 41.8055 97.492C41.5644 97.7332 41.2373 97.8687 40.8963 97.8687Z" fill="#E6E6E6"/>
<path d="M120.1 58.9199H15.2695V59.3452H120.1V58.9199Z" fill="#3F3D56"/>
</g>
<defs>
<clipPath id="clip0_414_16584">
<rect width="120.602" height="110" fill="white"/>
</clipPath>
</defs>
</svg>
