<svg width="26" height="30" viewBox="0 0 26 30" fill="none" xmlns="http://www.w3.org/2000/svg">
<path fill-rule="evenodd" clip-rule="evenodd" d="M0.702454 0.0690482C0.601721 0.112117 0.44238 0.216797 0.348302 0.301702C-0.0253259 0.638978 0.000375934 -0.447601 0.000375934 15.017C0.000375934 29.1324 0.000742463 29.1715 0.124614 29.4175C0.19531 29.5578 0.357581 29.7366 0.500988 29.8321L0.753066 30H13.0041H25.2551L25.5072 29.8321C25.6509 29.7364 25.8129 29.5578 25.8839 29.4167C26.0085 29.1695 26.0085 29.1605 25.9929 14.9397L25.9773 0.710153L25.8108 0.4792C25.7192 0.352223 25.5544 0.196025 25.4445 0.132185C25.2474 0.0175885 25.0816 0.0158869 13.0651 0.0033887C3.01937 -0.0070558 0.853493 0.00444489 0.702454 0.0690482ZM21.6392 3.63778C21.7234 3.7532 21.7343 4.32295 21.7343 8.61224C21.7343 12.9015 21.7234 13.4713 21.6392 13.5867L21.5442 13.7171H13.0041H4.46395L4.36895 13.5867C4.28476 13.4713 4.2739 12.9015 4.2739 8.61224C4.2739 4.32295 4.28476 3.7532 4.36895 3.63778L4.46395 3.50734H13.0041H21.5442L21.6392 3.63778ZM7.30852 5.92777C7.21622 5.99401 7.10169 6.32249 6.40309 8.52423C6.30071 8.84695 6.10937 9.44011 5.97799 9.8424C5.61297 10.96 5.63556 11.018 6.43501 11.018C6.99436 11.018 6.9733 11.0444 7.26341 9.97648L7.33111 9.7271H8.04613H8.76109L8.91091 10.257C9.11555 10.981 9.15896 11.018 9.80261 11.018C10.5815 11.018 10.577 11.0892 9.92544 9.06699C9.0589 6.37788 8.94962 6.0656 8.83741 5.9574C8.7487 5.87191 8.6186 5.85442 8.07068 5.85442C7.63801 5.85442 7.37562 5.87965 7.30852 5.92777ZM10.1127 5.92918C10.0258 5.99026 10.0098 6.07833 10.0248 6.41174C10.0413 6.77941 10.0582 6.82688 10.1958 6.89359C10.2834 6.93602 10.5761 6.96794 10.8826 6.9684L11.4168 6.96929V8.92323C11.4168 10.3647 11.436 10.8957 11.49 10.9476C11.5352 10.991 11.7568 11.018 12.0679 11.018C12.5043 11.018 12.581 11.0027 12.6356 10.9045C12.6755 10.8329 12.6988 10.0809 12.6987 8.86549L12.6985 6.93995L13.1711 6.95972C13.4309 6.97063 13.7433 6.9508 13.8653 6.91565C14.0571 6.86044 14.0921 6.82218 14.1249 6.63183C14.1893 6.2573 14.1687 6.09365 14.0419 5.97178C13.9252 5.85959 13.8385 5.85442 12.0695 5.85442C10.6671 5.85442 10.1933 5.8725 10.1127 5.92918ZM14.8356 5.97178C14.7533 6.05087 14.7125 6.1704 14.7103 6.33851C14.7086 6.47569 14.6433 7.52525 14.5651 8.67092C14.3954 11.1607 14.3663 11.018 15.0432 11.018C15.3521 11.018 15.5142 10.9925 15.5626 10.9364C15.6073 10.8847 15.663 10.2608 15.7147 9.23281C15.7595 8.34068 15.8098 7.59766 15.8265 7.58158C15.8432 7.56556 15.8728 7.64683 15.8923 7.76219C15.954 8.12798 16.6746 10.6791 16.7481 10.7922C16.8067 10.8824 16.8975 10.9006 17.2879 10.9006H17.7572L17.8788 10.5882C17.9457 10.4164 18.2018 9.63093 18.4479 8.84261L18.8954 7.40936L18.9124 7.79076C18.9218 8.00053 18.9506 8.77595 18.9765 9.51393C19.0313 11.0729 19.0069 11.018 19.6437 11.018C20.2108 11.018 20.269 10.9728 20.2695 10.5319C20.2701 10.1123 20.1017 6.94523 20.0498 6.39666C20.0302 6.19017 19.9752 5.99108 19.924 5.94191C19.7912 5.81423 18.5472 5.81616 18.4138 5.94432C18.3004 6.05328 17.962 7.0316 17.6141 8.25572L17.357 9.16075L17.1596 8.37307C16.9581 7.56896 16.6736 6.60472 16.5094 6.1687C16.3987 5.87514 16.3413 5.8563 15.5529 5.85524C15.0384 5.85454 14.9412 5.87032 14.8356 5.97178ZM8.27812 7.93558C8.39265 8.32185 8.48637 8.65854 8.48637 8.68371C8.48637 8.70894 8.27739 8.7296 8.02196 8.7296C7.60468 8.7296 7.5617 8.71915 7.59869 8.62691C7.62134 8.5704 7.72733 8.18889 7.83417 7.77909C7.94106 7.36923 8.03777 7.07878 8.04918 7.13364C8.06054 7.18844 8.16353 7.54937 8.27812 7.93558ZM12.1989 17.1227C12.3224 17.2332 12.3325 17.2967 12.3316 17.9588C12.3311 18.3529 12.3099 18.7067 12.2845 18.745C12.1588 18.9351 11.6129 18.9952 11.2685 18.8569C11.0969 18.788 11.0562 18.735 11.0209 18.5342L10.9787 18.2939H8.02312H5.06755V18.4902C5.06755 18.8016 4.8927 18.9101 4.3913 18.9098C3.78775 18.9094 3.75991 18.8714 3.73494 18.0124C3.71651 17.3805 3.72566 17.3107 3.84618 17.1635L3.9775 17.003H8.02141C12.0066 17.003 12.0673 17.0048 12.1989 17.1227ZM15.4949 18.071C15.5976 18.1697 15.5976 20.0025 15.4949 20.1012C15.3923 20.1999 13.4853 20.1999 13.3826 20.1012C13.3319 20.0525 13.3093 19.7508 13.3093 19.123C13.3093 18.3606 13.3255 18.198 13.4104 18.1079C13.5001 18.0126 13.6187 18.0006 14.4665 18.0006C15.128 18.0006 15.4442 18.0222 15.4949 18.071ZM18.8628 18.114C18.9548 18.2793 18.946 20.0115 18.8527 20.1012C18.75 20.1999 16.8431 20.1999 16.7404 20.1012C16.6896 20.0524 16.6671 19.7474 16.6671 19.1079C16.6671 18.3471 16.684 18.1688 16.763 18.0927C16.8422 18.0167 17.0286 18.0006 17.8293 18.0006C18.7261 18.0006 18.8044 18.0091 18.8628 18.114ZM22.1878 18.0927C22.2669 18.1688 22.2837 18.3471 22.2837 19.1079C22.2837 19.7474 22.2613 20.0524 22.2105 20.1012C22.1078 20.1999 20.2008 20.1999 20.0981 20.1012C20.0472 20.0522 20.0249 19.7406 20.0249 19.0773C20.0249 18.231 20.0369 18.117 20.1317 18.0639C20.1911 18.0307 20.65 18.0033 21.1652 18.0023C21.9279 18.0009 22.1088 18.0169 22.1878 18.0927ZM10.6231 18.8807C10.7426 18.9955 10.7452 19.075 10.7433 22.592C10.7416 25.705 10.729 26.2017 10.6491 26.3034C10.5599 26.4168 10.475 26.4212 8.06237 26.4373L5.56786 26.4538L5.43983 26.2973C5.31297 26.1423 5.31175 26.107 5.31175 22.5961V19.0514L5.46163 18.9074L5.61145 18.7634H8.05627C10.4196 18.7634 10.5051 18.7673 10.6231 18.8807ZM15.4949 21.2982C15.5976 21.3969 15.5976 23.2297 15.4949 23.3284C15.444 23.3774 15.1196 23.3988 14.4287 23.3988C13.5095 23.3988 13.4311 23.3904 13.3725 23.2854C13.3372 23.2219 13.3093 22.7929 13.3093 22.3133C13.3093 21.8337 13.3372 21.4047 13.3725 21.3413C13.4311 21.2362 13.5095 21.2278 14.4287 21.2278C15.1196 21.2278 15.444 21.2492 15.4949 21.2982ZM18.8527 21.2982C18.9036 21.3471 18.926 21.6568 18.926 22.3133C18.926 22.9699 18.9036 23.2795 18.8527 23.3284C18.75 23.4271 16.8431 23.4271 16.7404 23.3284C16.6895 23.2795 16.6671 22.9699 16.6671 22.3133C16.6671 21.6568 16.6895 21.3471 16.7404 21.2982C16.8431 21.1995 18.75 21.1995 18.8527 21.2982ZM22.2105 21.2982C22.2614 21.3471 22.2837 21.6568 22.2837 22.3133C22.2837 22.9699 22.2614 23.2795 22.2105 23.3284C22.1078 23.4271 20.2008 23.4271 20.0981 23.3284C20.0472 23.2795 20.0249 22.9699 20.0249 22.3133C20.0249 21.6568 20.0472 21.3471 20.0981 21.2982C20.2008 21.1995 22.1078 21.1995 22.2105 21.2982ZM15.5682 25.424C15.5872 26.0053 15.5752 26.4008 15.536 26.4761C15.4771 26.5893 15.4123 26.5977 14.4886 26.6128C13.6536 26.6265 13.4894 26.6147 13.4068 26.5353C13.3258 26.4575 13.3093 26.2851 13.3093 25.5142C13.3093 24.8183 13.3294 24.5707 13.3898 24.5226C13.4761 24.4537 15.1215 24.4014 15.385 24.4591L15.5377 24.4925L15.5682 25.424ZM18.8889 24.5479C18.9616 24.7297 18.9299 26.4814 18.8527 26.5557C18.8019 26.6045 18.4846 26.6261 17.8192 26.6261C17.0277 26.6261 16.8421 26.6099 16.763 26.5339C16.684 26.4578 16.6671 26.2795 16.6671 25.5188C16.6671 24.8792 16.6896 24.5743 16.7404 24.5254C16.7915 24.4763 17.1215 24.455 17.8327 24.455C18.7057 24.455 18.8572 24.4683 18.8889 24.5479ZM22.2105 24.5254C22.2614 24.5744 22.2837 24.8862 22.2837 25.5502C22.2837 26.4337 22.2749 26.5091 22.1657 26.5653C21.9937 26.6538 20.1914 26.6453 20.0981 26.5557C20.0209 26.4814 19.9893 24.7297 20.0619 24.5479C20.0937 24.4683 20.2451 24.455 21.1181 24.455C21.8293 24.455 22.1594 24.4763 22.2105 24.5254Z" fill="url(#paint0_linear_955_24221)"/>
<defs>
<linearGradient id="paint0_linear_955_24221" x1="27.4784" y1="15" x2="-19.5255" y2="15" gradientUnits="userSpaceOnUse">
<stop stop-color="#C5B2FF"/>
<stop offset="1" stop-color="#568FFF"/>
</linearGradient>
</defs>
</svg>
