<svg width="26" height="27" viewBox="0 0 26 27" fill="none" xmlns="http://www.w3.org/2000/svg">
<path fill-rule="evenodd" clip-rule="evenodd" d="M10.091 11.1431L11.0053 10.1604C12.4513 8.60635 14.8045 8.60635 16.2505 10.1604L19.2885 13.4247L20.6315 11.9814C20.7986 11.8018 21.0507 11.7473 21.2694 11.8446C21.488 11.9419 21.6309 12.1727 21.6309 12.427V17.8814C21.6309 18.2288 21.3685 18.5108 21.0453 18.5108H15.9702C15.7336 18.5108 15.5197 18.3572 15.4291 18.1222C15.3386 17.8881 15.3878 17.6171 15.5564 17.4367L16.8986 15.9933L13.2133 12.0326C12.5801 11.352 11.551 11.352 10.9186 12.0326C10.6898 12.2784 10.319 12.2784 10.0902 12.0326C9.86142 11.7867 9.8622 11.3889 10.091 11.1431Z" fill="#7BA3F2"/>
<path fill-rule="evenodd" clip-rule="evenodd" d="M3.33111 14.3462V8.89224C3.33111 8.54487 3.59344 8.26294 3.91667 8.26294H8.99156C9.22813 8.26294 9.44205 8.41649 9.53262 8.65143C9.62319 8.88721 9.57322 9.15823 9.40536 9.33695L8.06324 10.7801L11.7484 14.7406C12.3816 15.421 13.4106 15.421 14.043 14.7406C14.2718 14.4947 14.6426 14.4947 14.8714 14.7406C15.1002 14.9864 15.1002 15.385 14.8714 15.6308L13.9571 16.6134C12.5112 18.1673 10.158 18.1673 8.71205 16.6134L5.67336 13.3485L4.33047 14.7917C4.16339 14.9713 3.91121 15.0258 3.6926 14.9285C3.47399 14.8312 3.33111 14.6004 3.33111 14.3462Z" fill="#7BA3F2"/>
</svg>
