<svg width="26" height="27" viewBox="0 0 26 27" fill="none" xmlns="http://www.w3.org/2000/svg">
<path fill-rule="evenodd" clip-rule="evenodd" d="M2.30072 11.5029H23.6486C23.6403 9.04396 23.5566 7.73492 22.7116 6.88988C21.7736 5.9519 20.2639 5.9519 17.2446 5.9519H8.70473C5.68542 5.9519 4.17576 5.9519 3.23778 6.88988C2.39274 7.73492 2.30901 9.04396 2.30072 11.5029ZM23.6495 13.2109H2.30001C2.29994 13.2109 2.29987 13.2109 2.2998 13.2109V15.5593C2.2998 18.5786 2.2998 20.0883 3.23778 21.0262C4.17576 21.9642 5.68542 21.9642 8.70473 21.9642H17.2446C20.2639 21.9642 21.7736 21.9642 22.7116 21.0262C23.6495 20.0883 23.6495 18.5786 23.6495 15.5593V13.2109ZM7.63745 16.8403C7.1658 16.8403 6.78346 17.2227 6.78346 17.6943C6.78346 18.1659 7.1658 18.5483 7.63745 18.5483H7.64812C8.11977 18.5483 8.50211 18.1659 8.50211 17.6943C8.50211 17.2227 8.11977 16.8403 7.64812 16.8403H7.63745Z" fill="#7BA3F2"/>
</svg>
