<svg width="27" height="26" viewBox="0 0 27 26" fill="none" xmlns="http://www.w3.org/2000/svg">
<path fill-rule="evenodd" clip-rule="evenodd" d="M10.2777 5.1418C7.26551 6.46128 5.16113 9.46883 5.16113 12.9679C5.16113 13.2885 5.1788 13.6049 5.21321 13.9163L12.1321 12.0624L10.2777 5.1418ZM12.7527 4.48004L14.7173 11.8118L14.7272 11.8488C14.7699 12.0074 14.8301 12.2311 14.8566 12.4362C14.8899 12.6947 14.8977 13.1036 14.6572 13.5203C14.4166 13.937 14.0586 14.1346 13.818 14.235C13.6272 14.3147 13.4034 14.3744 13.2447 14.4167L13.2076 14.4266L5.87502 16.3914C7.19453 19.4035 10.202 21.5078 13.701 21.5078C18.4175 21.5078 22.2409 17.6843 22.2409 12.9679C22.2409 8.25142 18.4175 4.42798 13.701 4.42798C13.3805 4.42798 13.0641 4.44564 12.7527 4.48004Z" fill="#7BA3F2"/>
<path d="M11.3804 4.30649C11.1669 3.50948 11.0601 3.11097 10.7038 2.94168C10.3476 2.77238 10.0087 2.92445 9.33091 3.22859C8.57637 3.56717 7.86197 3.99309 7.20279 4.4989C6.09063 5.35228 5.15745 6.41637 4.45653 7.6304C3.75561 8.84444 3.30067 10.1846 3.11769 11.5745C3.00924 12.3983 2.99759 13.2299 3.08163 14.0527C3.15712 14.7917 3.19487 15.1612 3.51962 15.3851C3.84437 15.609 4.24288 15.5022 5.03989 15.2886L12.0515 13.4099C12.8292 13.2015 13.218 13.0973 13.3949 12.791C13.5718 12.4846 13.4676 12.0958 13.2592 11.3181L11.3804 4.30649Z" fill="#7BA3F2"/>
</svg>
