<svg width="26" height="27" viewBox="0 0 26 27" fill="none" xmlns="http://www.w3.org/2000/svg">
<path fill-rule="evenodd" clip-rule="evenodd" d="M22.582 15.5781C22.582 20.8841 18.2806 25.1855 12.9746 25.1855C7.66856 25.1855 3.36719 20.8841 3.36719 15.5781C3.36719 10.2721 7.66856 5.9707 12.9746 5.9707C18.2806 5.9707 22.582 10.2721 22.582 15.5781ZM12.9744 21.3426C16.158 21.3426 18.7388 18.7617 18.7388 15.5781C18.7388 12.3945 16.158 9.81369 12.9744 9.81369C9.79079 9.81369 7.20997 12.3945 7.20997 15.5781C7.20997 18.7617 9.79079 21.3426 12.9744 21.3426ZM12.9744 23.0505C17.1013 23.0505 20.4468 19.705 20.4468 15.5781C20.4468 11.4512 17.1013 8.10571 12.9744 8.10571C8.8475 8.10571 5.50199 11.4512 5.50199 15.5781C5.50199 19.705 8.8475 23.0505 12.9744 23.0505ZM13.8284 12.3757C13.8284 11.904 13.446 11.5217 12.9744 11.5217C12.5028 11.5217 12.1204 11.904 12.1204 12.3757V15.5781C12.1204 16.0498 12.5028 16.4321 12.9744 16.4321C13.446 16.4321 13.8284 16.0498 13.8284 15.5781V12.3757Z" fill="#7BA3F2"/>
<path d="M18.8457 8.63956L20.4469 7.03833" stroke="#7BA3F2" stroke-width="1.70798" stroke-linecap="round"/>
<path d="M10.9122 3.16391C11.0338 3.05042 11.3018 2.95013 11.6747 2.87861C12.0476 2.80708 12.5044 2.76831 12.9744 2.76831C13.4444 2.76831 13.9012 2.80708 14.2741 2.87861C14.647 2.95013 14.915 3.05042 15.0366 3.16391" stroke="#7BA3F2" stroke-width="1.70798" stroke-linecap="round"/>
</svg>
