<svg width="26" height="27" viewBox="0 0 26 27" fill="none" xmlns="http://www.w3.org/2000/svg">
<path fill-rule="evenodd" clip-rule="evenodd" d="M2.92226 3.4999C2.17188 4.25028 2.17188 5.458 2.17188 7.87345V18.9753C2.17188 21.3908 2.17188 22.5985 2.92226 23.3489C3.67264 24.0993 4.88037 24.0993 7.29581 24.0993H18.3977C20.8131 24.0993 22.0209 24.0993 22.7712 23.3489C23.5216 22.5985 23.5216 21.3908 23.5216 18.9753V7.87345C23.5216 5.458 23.5216 4.25028 22.7712 3.4999C22.0209 2.74951 20.8131 2.74951 18.3977 2.74951H7.29581C4.88037 2.74951 3.67264 2.74951 2.92226 3.4999ZM18.895 10.6956C19.1566 10.3032 19.0505 9.77295 18.6581 9.51132C18.2657 9.2497 17.7355 9.35575 17.4738 9.74818L14.0202 14.9287L13.2014 13.2912C12.6149 12.1182 10.9801 12.0164 10.2526 13.1076L6.79896 18.2881C6.53734 18.6805 6.64338 19.2107 7.03581 19.4723C7.42825 19.734 7.95846 19.6279 8.22008 19.2355L11.6737 14.055L12.4925 15.6925C13.079 16.8655 14.7138 16.9673 15.4413 15.8761L18.895 10.6956Z" fill="#7BA3F2"/>
</svg>
