<svg width="26" height="27" viewBox="0 0 26 27" fill="none" xmlns="http://www.w3.org/2000/svg">
<path d="M5.375 15.2011C5.375 14.3393 5.375 13.9084 5.5643 13.5406C5.7536 13.1727 6.10422 12.9223 6.80547 12.4214L11.8547 8.81482C12.334 8.4724 12.5737 8.30119 12.8474 8.30119C13.1211 8.30119 13.3608 8.4724 13.8402 8.81482L18.8893 12.4214C19.5906 12.9223 19.9412 13.1727 20.1305 13.5406C20.3198 13.9084 20.3198 14.3393 20.3198 15.2011V21.3426C20.3198 22.1477 20.3198 22.5503 20.0697 22.8004C19.8196 23.0505 19.417 23.0505 18.6118 23.0505H7.08298C6.27783 23.0505 5.87526 23.0505 5.62513 22.8004C5.375 22.5503 5.375 22.1477 5.375 21.3426V15.2011Z" fill="#7BA3F2"/>
<path d="M3.23926 13.9869C3.23926 14.2148 3.23926 14.3287 3.31108 14.3639C3.38289 14.399 3.47284 14.329 3.65274 14.1891L11.798 7.85387C12.3018 7.46208 12.5536 7.26619 12.8466 7.26619C13.1397 7.26619 13.3915 7.46209 13.8952 7.85387L22.0405 14.1891C22.2204 14.329 22.3104 14.399 22.3822 14.3639C22.454 14.3287 22.454 14.2148 22.454 13.9869V13.2111C22.454 12.8009 22.454 12.5958 22.3672 12.4182C22.2804 12.2407 22.1185 12.1147 21.7946 11.8629L13.8952 5.7189C13.3915 5.32711 13.1397 5.13122 12.8466 5.13122C12.5536 5.13122 12.3018 5.32711 11.798 5.7189L3.89864 11.8629C3.57484 12.1147 3.41293 12.2407 3.3261 12.4182C3.23926 12.5958 3.23926 12.8009 3.23926 13.2111V13.9869Z" fill="#7BA3F2"/>
<path d="M13.8082 16.6455H11.8867C10.9434 16.6455 10.1787 17.4102 10.1787 18.3535V22.9223C10.1787 22.9931 10.2361 23.0504 10.3068 23.0504H15.388C15.4588 23.0504 15.5161 22.9931 15.5161 22.9223V18.3535C15.5161 17.4102 14.7515 16.6455 13.8082 16.6455Z" fill="white"/>
<rect x="17.1172" y="5.9707" width="2.13497" height="4.26995" rx="0.426995" fill="#7BA3F2"/>
</svg>
