<svg width="26" height="27" viewBox="0 0 26 27" fill="none" xmlns="http://www.w3.org/2000/svg">
<path fill-rule="evenodd" clip-rule="evenodd" d="M3.05019 4.53017C2.2998 5.28055 2.2998 6.48827 2.2998 8.90372V17.8706C2.2998 20.2861 2.2998 21.4938 3.05019 22.2442C3.80057 22.9946 5.0083 22.9946 7.42374 22.9946H18.5256C20.9411 22.9946 22.1488 22.9946 22.8992 22.2442C23.6495 21.4938 23.6495 20.2861 23.6495 17.8706V8.90372C23.6495 6.48828 23.6495 5.28055 22.8992 4.53017C22.1488 3.77979 20.9411 3.77979 18.5256 3.77979H7.42374C5.0083 3.77979 3.80057 3.77979 3.05019 4.53017ZM17.245 9.3307C17.7166 9.3307 18.099 9.71304 18.099 10.1847V18.7246C18.099 19.1962 17.7166 19.5786 17.245 19.5786C16.7733 19.5786 16.391 19.1962 16.391 18.7246V10.1847C16.391 9.71304 16.7733 9.3307 17.245 9.3307ZM9.55908 12.3197C9.55908 11.848 9.17673 11.4657 8.70509 11.4657C8.23344 11.4657 7.8511 11.848 7.8511 12.3197V18.7246C7.8511 19.1962 8.23344 19.5786 8.70509 19.5786C9.17673 19.5786 9.55908 19.1962 9.55908 18.7246V12.3197ZM13.829 14.4546C13.829 13.983 13.4467 13.6006 12.975 13.6006C12.5034 13.6006 12.121 13.983 12.121 14.4546V18.7246C12.121 19.1962 12.5034 19.5786 12.975 19.5786C13.4467 19.5786 13.829 19.1962 13.829 18.7246V14.4546Z" fill="#7BA3F2"/>
</svg>
