<svg width="26" height="27" viewBox="0 0 26 27" fill="none" xmlns="http://www.w3.org/2000/svg">
<path fill-rule="evenodd" clip-rule="evenodd" d="M13.1882 19.6069C14.6521 18.8605 20.3188 15.6191 20.3188 10.166C20.3188 6.03912 16.9733 2.6936 12.8464 2.6936C8.71954 2.6936 5.37402 6.03912 5.37402 10.166C5.37402 15.6191 11.0408 18.8605 12.5047 19.6069C12.7214 19.7174 12.9715 19.7174 13.1882 19.6069ZM12.8464 13.3685C14.6151 13.3685 16.0489 11.9347 16.0489 10.166C16.0489 8.39734 14.6151 6.96355 12.8464 6.96355C11.0778 6.96355 9.64397 8.39734 9.64397 10.166C9.64397 11.9347 11.0778 13.3685 12.8464 13.3685Z" fill="#7BA3F2"/>
<path d="M19.3187 18.172C19.9745 18.6589 20.3198 19.2111 20.3198 19.7733C20.3198 20.3354 19.9745 20.8877 19.3187 21.3745C18.6629 21.8613 17.7196 22.2656 16.5836 22.5467C15.4477 22.8278 14.1591 22.9757 12.8474 22.9757C11.5357 22.9757 10.2472 22.8278 9.11121 22.5467C7.97526 22.2656 7.03195 21.8613 6.37611 21.3745C5.72027 20.8877 5.375 20.3354 5.375 19.7733C5.375 19.2111 5.72027 18.6589 6.37611 18.172" stroke="#7BA3F2" stroke-width="1.70798" stroke-linecap="round"/>
</svg>
