<svg width="22" height="13" viewBox="0 0 22 13" fill="none" xmlns="http://www.w3.org/2000/svg">
<path fill-rule="evenodd" clip-rule="evenodd" d="M8.19206 3.7704L9.25874 2.62399C10.9457 0.810883 13.6912 0.810883 15.3782 2.62399L18.9226 6.4323L20.4893 4.74842C20.6842 4.53892 20.9785 4.47528 21.2335 4.58885C21.4886 4.70241 21.6553 4.97164 21.6553 5.26827V11.6318C21.6553 12.0371 21.3492 12.366 20.9721 12.366H15.0512C14.7752 12.366 14.5256 12.1869 14.4199 11.9127C14.3143 11.6396 14.3717 11.3234 14.5684 11.1129L16.1343 9.42902L11.8348 4.80814C11.096 4.01417 9.89546 4.01417 9.15763 4.80814C8.89073 5.09499 8.45805 5.09499 8.19115 4.80814C7.92426 4.5213 7.92517 4.05725 8.19206 3.7704V3.7704Z" fill="white"/>
<path fill-rule="evenodd" clip-rule="evenodd" d="M0.30589 7.50728V1.14434C0.30589 0.739071 0.611945 0.410156 0.989048 0.410156L6.90975 0.410156C7.18574 0.410156 7.43532 0.589298 7.54099 0.863394C7.64665 1.13847 7.58835 1.45466 7.39251 1.66317L5.82672 3.3469L10.1261 7.96737C10.8648 8.76127 12.0653 8.76127 12.8031 7.96737C13.07 7.68055 13.5027 7.68055 13.7696 7.96737C14.0364 8.2542 14.0364 8.71918 13.7696 9.006L12.7029 10.1523C11.016 11.9653 8.2706 11.9653 6.58365 10.1523L3.03852 6.34336L1.47181 8.02709C1.27688 8.23658 0.982672 8.3002 0.727626 8.18665C0.472581 8.0731 0.30589 7.8039 0.30589 7.50728Z" fill="white"/>
</svg>
