<svg width="22" height="22" viewBox="0 0 22 22" fill="none" xmlns="http://www.w3.org/2000/svg">
<path d="M11 21L1.6797 9.34963C1.34718 8.93398 1.18092 8.72615 1.13625 8.4757C1.09159 8.22524 1.17575 7.97276 1.34407 7.46778L2.5883 3.73509C3.02832 2.41505 3.24832 1.75503 3.7721 1.37752C4.29587 1 4.99159 1 6.38304 1H15.617C17.0084 1 17.7041 1 18.2279 1.37752C18.7517 1.75503 18.9717 2.41505 19.4117 3.73509L20.6559 7.46778C20.8243 7.97276 20.9084 8.22524 20.8637 8.4757C20.8191 8.72615 20.6528 8.93398 20.3203 9.34963L11 21ZM11 21L15.375 7.25M11 21L6.625 7.25M20.375 8.5L15.375 7.25M15.375 7.25L13.5 2.25M15.375 7.25H6.625M8.5 2.25L6.625 7.25M6.625 7.25L1.625 8.5" stroke="#7BA3F2" stroke-linecap="round"/>
</svg>
