<svg width="794" height="786" viewBox="0 0 794 786" fill="none" xmlns="http://www.w3.org/2000/svg">
<path fill-rule="evenodd" clip-rule="evenodd" d="M367.051 714.804C325.103 697.987 169.477 617.648 169.477 351.811H169.5C169.5 56.3731 287.087 15.7652 327.54 10.5467C334.325 9.66959 340.097 15.1951 339.085 21.6634C334.9 47.9094 325.425 112.571 325.425 158.551C325.425 185.06 323.677 264.28 323.677 264.28H632.008V74.2432C632.008 67.2486 628.535 60.7803 622.809 56.395C601.904 40.4325 579.941 0 701.323 0C800.052 0 793.176 62.7537 793.176 62.7537V673.911C793.176 673.911 793.176 701.977 718.663 701.977C644.173 701.977 628.581 673.911 628.581 673.911V386.499H323.654C323.654 386.499 321.929 420.55 321.929 464.623C321.929 549.215 361.922 673.254 373.95 708.709C375.33 712.743 371.144 716.449 367.051 714.804ZM348.789 749.78C322.503 742.04 237.894 715.882 144.339 480.237C89.5126 342.1 145.627 142.043 145.627 142.043C145.627 142.043 14.448 244.856 71.5744 450.505C135.255 679.703 236.583 739.168 236.583 739.168C236.583 739.168 182.769 732.48 114.465 638.81C72.8853 581.845 27.3957 454.233 27.3957 454.233C27.3957 454.233 -56.3391 580.946 68.9756 690.842C154.451 765.817 206.178 774.618 234.053 779.361C237.963 780.026 241.404 780.611 244.403 781.288C270.183 787.099 300.218 785.345 318.478 781.288C343.155 775.785 354.01 763.44 359.046 756.731C360.173 755.196 359.46 753.091 357.597 752.499C354.907 751.644 351.296 750.526 348.789 749.78Z" fill="white"/>
</svg>
