<svg width="21" height="24" viewBox="0 0 21 24" fill="none" xmlns="http://www.w3.org/2000/svg">
<path fill-rule="evenodd" clip-rule="evenodd" d="M0.967794 8.07489C0.577148 8.92424 0.577148 9.8905 0.577148 11.823V17.8584C0.577148 20.5423 0.577148 21.8842 1.41091 22.7179C2.2298 23.5368 3.53888 23.5514 6.12808 23.5517V16.4352C6.12808 15.1775 7.14767 14.1579 8.40539 14.1579H12.6753C13.9331 14.1579 14.9526 15.1775 14.9526 16.4352V23.5517C17.5419 23.5514 18.8509 23.5368 19.6698 22.7179C20.5036 21.8842 20.5036 20.5423 20.5036 17.8584V11.823C20.5036 9.8905 20.5036 8.92424 20.1129 8.07489C19.7223 7.22554 18.9886 6.59671 17.5214 5.33904L16.0981 4.11906C13.446 1.84584 12.1199 0.709229 10.5404 0.709229C8.96081 0.709229 7.63476 1.84584 4.98267 4.11906L3.55935 5.33904C2.09208 6.59671 1.35844 7.22554 0.967794 8.07489ZM13.2447 23.5517V16.4352C13.2447 16.1208 12.9898 15.8659 12.6753 15.8659H8.40539C8.09096 15.8659 7.83606 16.1208 7.83606 16.4352V23.5517H13.2447Z" fill="#7BA3F2"/>
</svg>
