<svg width="3113" height="791" viewBox="0 0 3113 791" fill="none" xmlns="http://www.w3.org/2000/svg">
<path fill-rule="evenodd" clip-rule="evenodd" d="M2709 0.307296C2707.62 0.560296 2703.05 1.63329 2698.84 2.69229C2694.63 3.75129 2686.85 5.06629 2681.55 5.61529C2671.63 6.6453 2650.29 11.6093 2634.5 16.5643C2619.47 21.2813 2588.16 34.3533 2580.1 39.2783C2575.92 41.8293 2567.59 46.8023 2561.59 50.3283C2555.6 53.8553 2548.85 58.0673 2546.59 59.6893C2530.07 71.5913 2520.43 78.9493 2514.59 84.1213C2504.63 92.9463 2481.73 117.682 2473.9 128.078C2470.15 133.051 2464.81 140.046 2462.02 143.621C2457.17 149.849 2436.39 189.415 2430.51 203.621C2425.39 215.973 2416 246.152 2414.48 255.121C2413.64 260.071 2411.86 268.846 2410.53 274.621C2408.85 281.916 2407.8 290.768 2407.07 303.621C2406.5 313.954 2405.31 324.991 2404.39 328.621C2402.26 336.977 2402.27 350.332 2404.41 358.621C2405.53 362.985 2406.41 372.842 2407.08 388.621C2407.63 401.546 2408.76 415.496 2409.6 419.621C2410.43 423.746 2411.8 430.721 2412.62 435.121C2418.91 468.562 2427.39 497.091 2440.72 529.621C2448.44 548.483 2452.66 556.587 2469.33 584.538C2470.45 586.417 2473.89 591.142 2476.98 595.038C2480.06 598.934 2484.7 605.104 2487.29 608.75C2493.23 617.114 2512.64 637.97 2524.76 649.016C2544.55 667.046 2587.05 693.688 2611 703.068C2616.23 705.114 2625.45 708.729 2631.5 711.1C2645.1 716.428 2669.27 722.404 2682.24 723.642C2687.59 724.153 2695.69 725.595 2700.24 726.846C2708.24 729.049 2709.86 729.121 2751.5 729.121C2793.14 729.121 2794.76 729.049 2802.76 726.846C2807.31 725.595 2815.48 724.147 2820.93 723.628C2849.24 720.93 2902.86 702.339 2929 686.158C2933.68 683.264 2941.12 678.821 2945.54 676.285C2949.97 673.749 2957.62 668.219 2962.54 663.997C2967.47 659.775 2975.1 653.837 2979.5 650.801C2989.21 644.101 3013.78 619.756 3020.55 610.121C3023.25 606.271 3028.45 599.296 3032.1 594.621C3048.56 573.546 3069.42 539.527 3077.98 519.794C3089.08 494.194 3105.38 438.007 3107.03 419.621C3107.51 414.396 3109.04 405.396 3110.44 399.621L3113 389.121V334.621C3113 280.414 3112.98 280.067 3110.58 270.121C3109.25 264.621 3107.68 256.637 3107.09 252.38C3105.62 241.724 3097.72 211.469 3093.36 199.773C3087.45 183.926 3072.57 154.568 3063.79 141.434C3059.27 134.674 3052.16 125.088 3047.98 120.132C3043.81 115.176 3037.18 107.034 3033.25 102.039C3028.67 96.2083 3023.14 90.6703 3017.81 86.5683C3013.24 83.0533 3005.68 76.8313 3001 72.7393C2988.27 61.6023 2967.94 48.7053 2944.98 37.2123C2928.3 28.8623 2920.43 25.6193 2902.98 19.8903C2881.13 12.7193 2862.09 7.8803 2845 5.1523C2839.77 4.3183 2833.02 2.8693 2830 1.9323C2825.13 0.421296 2818.07 0.206292 2768 0.0372918C2736.93 -0.0667082 2710.38 0.0542961 2709 0.307296ZM621 19.0023C609.528 21.7263 594.44 30.1623 585.15 39.0473C577.604 46.2643 576 49.0503 576 54.9413C576 58.7033 576.938 60.7643 582.298 68.7813C588.978 78.7723 593.054 89.0563 594.939 100.674C596.316 109.163 596.328 211.109 594.953 223.121C594.387 228.071 593.243 234.747 592.412 237.956C591.581 241.165 590.53 249.128 590.077 255.651C589.102 269.687 587.387 273.934 581.435 277.056C577.516 279.113 576.954 279.121 444 279.121C311.046 279.121 310.484 279.113 306.565 277.056C304.122 275.775 301.846 273.499 300.565 271.056C298.593 267.298 298.5 265.548 298.5 232.121C298.5 198.18 298.573 196.864 300.905 188.621C302.749 182.104 303.474 176.388 304.015 164.121C304.502 153.074 305.367 145.645 306.809 140.121C307.958 135.721 309.569 127.608 310.39 122.092C311.21 116.577 312.329 110.885 312.877 109.444C313.425 108.004 314.836 101.492 316.013 94.9733C317.19 88.4543 320.163 76.9513 322.619 69.4103C328.069 52.6773 328.793 47.4233 326.309 42.6353C323.691 37.5903 320.826 36.4503 312 36.9423C289.881 38.1753 257.182 55.5353 234.951 77.8493C221.862 90.9863 210.6 107.085 201.881 125.121C192.449 144.634 179.075 188.062 176.013 209.121C175.373 213.521 173.936 220.721 172.818 225.121C171.701 229.521 170.423 238.971 169.978 246.121C169.474 254.237 168.18 263.161 166.534 269.876L163.898 280.63L164.263 331.376C164.616 380.493 164.7 382.362 166.87 389.621C168.529 395.173 169.337 401.407 169.98 413.621C170.468 422.897 171.536 432.529 172.419 435.621C173.282 438.646 174.693 445.171 175.554 450.121C181.491 484.268 195.349 532.47 206.747 558.621C209.744 565.496 213.978 575.396 216.156 580.621C223.909 599.214 225.374 602.227 230.99 611.121C234.116 616.071 238.42 623.271 240.556 627.121C242.691 630.971 247.853 638.621 252.026 644.121C256.199 649.621 261.013 656.173 262.724 658.682C271.561 671.635 289.36 687.641 311 702.093C338.137 720.217 350.667 723.929 358.074 716.041C362.449 711.381 361.486 706.286 352.776 688.024C344.783 671.262 342.959 666.515 331.872 633.621C322.725 606.484 311.827 562.722 310.052 546.002C309.475 540.567 308.068 532.746 306.925 528.621C305.363 522.985 304.639 516.274 304.012 501.621C303.347 486.061 302.725 480.606 300.937 474.621C298.893 467.779 298.657 464.531 298.256 437.621C297.78 405.737 298.381 399.66 302.44 395.28C306.334 391.079 312.183 390.088 321 392.134C330.779 394.404 340.273 394.614 470.5 395.441C576.008 396.112 577.555 396.15 581.435 398.186C583.878 399.467 586.154 401.743 587.435 404.186C589.481 408.085 589.505 409.259 590 531.621L590.5 655.121L594.229 666.121C596.279 672.171 599.501 679.405 601.388 682.197C608.722 693.049 622.441 702.307 634.485 704.534C643.364 706.175 706.968 705.95 714.184 704.252C721.925 702.43 728.567 697.923 737.49 688.438C745.926 679.471 751.129 669.951 752.968 660.121C753.785 655.753 754.006 581.753 753.778 388.121L753.466 122.121L748.814 104.942C746.256 95.4933 742.396 83.9923 740.236 79.3843C734.908 68.0143 725.035 53.5813 717.544 46.2093C709.33 38.1273 689.978 25.1983 680.286 21.3183L672.5 18.2003L649.5 17.9483C633.256 17.7713 624.884 18.0803 621 19.0023ZM926 19.2263C920.289 20.7553 916.139 23.1103 907.281 29.8473C896.997 37.6683 885.322 56.2703 883.015 68.5073C881.79 75.0103 881.698 458.755 882.92 465.621C883.361 468.096 884.446 473.721 885.333 478.121C886.219 482.521 887.377 491.544 887.907 498.172C889.776 521.564 903.1 565.418 916.602 592.621C930.832 621.292 954.127 650.343 975.729 666.36C980.003 669.529 987.325 675.101 992 678.743C1006.07 689.699 1036.82 705.254 1058.95 712.602C1081.06 719.944 1094.85 722.778 1112.5 723.606C1124.54 724.171 1130.6 724.946 1137 726.739C1145.31 729.067 1146.41 729.121 1185.5 729.121C1224.45 729.121 1225.72 729.059 1234 726.764C1239.48 725.244 1247.11 724.125 1255.5 723.612C1285.36 721.786 1336.86 705.04 1365.5 687.843C1373.52 683.026 1400.32 663.008 1407.36 656.572C1412.58 651.801 1427.69 632.794 1437.8 618.288C1444.53 608.62 1462.47 571.955 1466.36 559.899C1471.16 545.055 1475.72 526.664 1478.58 510.621C1479.9 503.196 1481.67 493.521 1482.5 489.121C1483.84 482.087 1483.99 455.873 1483.76 272.121L1483.5 63.1213L1480.78 56.3413C1477.06 47.0563 1472.08 39.8653 1464.4 32.6753C1456.79 25.5613 1448.36 21.0173 1439.12 19.0593C1430.91 17.3193 1380.43 17.0593 1371.43 18.7103C1353.32 22.0353 1335.47 38.2213 1327.23 58.7923C1325.61 62.8333 1325.46 76.4123 1324.96 262.621L1324.43 462.121L1322.27 469.621C1321.08 473.746 1319.42 481.396 1318.58 486.621C1316.63 498.785 1312.48 510.974 1305.33 525.501C1294.87 546.772 1285.93 558.134 1271.49 568.497C1256.11 579.531 1245.88 584.599 1224.5 591.764L1214.5 595.116L1185.5 595.102L1156.5 595.088L1144 590.969C1137.12 588.704 1127.74 585.462 1123.14 583.765C1103.94 576.682 1079.31 555.78 1069.18 537.99C1059.95 521.763 1055.07 510.236 1050.76 494.445L1046.57 479.121L1046.04 276.621L1045.5 74.1213L1042.16 64.1213C1037.64 50.6023 1035.21 46.6823 1024.62 35.8333C1007.23 18.0113 1005.83 17.5983 963.04 17.6873C938.584 17.7383 930.265 18.0833 926 19.2263ZM1668 18.9953C1654.95 21.8563 1641.93 31.1063 1632.95 43.8893C1625.65 54.2843 1623.98 59.6713 1622.99 76.1213C1622.53 83.8213 1621.63 92.3713 1620.99 95.1213C1620.36 97.8713 1619.38 102.371 1618.82 105.121C1618.2 108.162 1617.5 149.104 1617.04 209.621C1616.28 308.905 1616.28 309.141 1613.98 318.121C1611.69 327.105 1611.68 327.289 1611.02 424.121L1610.36 521.121L1607.99 528.621C1605.62 536.098 1605.61 536.306 1605.24 595.121C1604.98 636.962 1605.21 655.866 1606.03 660.121C1608.09 670.868 1614.17 680.888 1625.45 692.142C1633.19 699.864 1637.08 702.923 1642.4 705.476C1668.64 718.071 1698.08 710.802 1717.53 686.93C1723.14 680.037 1725.87 674.785 1729.63 663.621L1732.5 655.121L1733.05 565.121L1733.61 475.121L1736.01 467.621L1738.41 460.121L1738.95 360.121C1739.45 268.752 1739.65 259.796 1741.2 256.357C1742.14 254.287 1743.56 252.342 1744.36 252.035C1746.77 251.113 1751.72 254.351 1754.82 258.872C1756.43 261.209 1768.54 284.721 1781.75 311.121C1808.24 364.085 1819.27 385.242 1823.91 391.996C1825.61 394.456 1831.9 405.918 1837.9 417.465C1843.89 429.013 1850.94 441.76 1853.55 445.791C1856.17 449.823 1864.04 464.222 1871.04 477.79C1883.46 501.868 1891.06 514.687 1899.27 525.416C1904.18 531.843 1915.33 539.404 1926.47 543.857C1934.34 547 1934.82 547.065 1950.5 547.062C1968.74 547.057 1970.87 546.52 1982.06 539.082C1993.36 531.57 1997.39 527.082 2007.15 511.121C2015.74 497.082 2043.25 444.195 2076.83 377.121C2084.82 361.171 2094.45 342.946 2098.24 336.621C2107.8 320.64 2121.85 292.533 2128.47 276.152C2144.48 236.523 2154.57 227.25 2161.65 245.649C2163.22 249.717 2163.44 258.793 2164.11 346.121C2164.57 405.931 2165.24 444.194 2165.9 447.621C2170 469.071 2169.93 467.782 2170.05 524.621C2170.11 555.146 2170.52 596.096 2170.95 615.621C2171.72 650.038 2171.82 651.38 2174.38 659.621C2178.46 672.753 2184.23 683.925 2190.22 690.261C2196.22 696.614 2206.77 703.176 2218.5 707.84C2226.47 711.008 2226.59 711.024 2248.01 711.416C2273.19 711.877 2278.24 711.171 2289.96 705.562C2296.8 702.286 2299.97 699.944 2306.51 693.313C2313.38 686.346 2315.46 683.387 2320.31 673.618C2327.77 658.586 2329.39 651.09 2328.62 635.121C2328.26 627.526 2327.24 620.184 2325.85 615.121C2323.71 607.314 2323.64 605.215 2322.97 528.121C2322.29 450.851 2322.23 448.924 2320.04 440.121C2317.86 431.377 2317.77 428.984 2316.96 356.121C2316.48 312.281 2315.7 278.836 2315.09 275.621C2314.52 272.596 2313.38 266.521 2312.56 262.121C2311.36 255.698 2311.05 243.473 2310.99 200.121C2310.89 138.176 2309.79 104.934 2307.53 96.1213C2306.69 92.8213 2305.58 84.0463 2305.05 76.6213C2303.64 56.4023 2300.24 48.6373 2287.03 35.3993C2277.5 25.8483 2268.4 20.5763 2258.11 18.6363C2251.07 17.3083 2169.03 17.2943 2161.89 18.6203C2148.77 21.0533 2132.79 32.5893 2123.96 45.9943C2118.58 54.1723 1996.11 299.787 1990.33 313.989C1979.77 339.953 1972.67 351.621 1967.42 351.621C1964.44 351.621 1960.16 348.609 1957.85 344.897C1954.67 339.783 1926.1 283.306 1877.93 186.895C1855.88 142.77 1835.34 102.72 1832.28 97.8953C1829.22 93.0693 1821.64 79.2993 1815.42 67.2953C1803.28 43.8393 1798.6 36.8913 1790.6 30.4463C1784.14 25.2353 1773.23 20.1223 1765.57 18.7133C1757.1 17.1563 1675.31 17.3923 1668 18.9953ZM2784 99.9903C2787.02 100.87 2794.45 102.489 2800.5 103.587C2831.75 109.259 2854.13 121.557 2879.55 147.038C2902.31 169.849 2915.87 191.94 2927.58 225.271C2934.33 244.462 2941.46 271.047 2942.96 282.621C2943.56 287.296 2945.06 295.171 2946.28 300.121C2948.39 308.67 2948.5 311.15 2948.5 349.621C2948.5 388.558 2948.41 390.437 2946.25 398.305C2945.01 402.806 2943.55 411.806 2943.01 418.305C2942.48 424.804 2941.17 433.271 2940.1 437.121C2939.04 440.971 2937.43 448.171 2936.53 453.121C2935.63 458.071 2931.99 471.149 2928.44 482.182C2923.1 498.812 2920.05 506.173 2910.61 525.218C2884.62 577.654 2865.25 597.467 2820.5 617.378C2807.28 623.261 2803.45 624.366 2790.34 626.077C2783.81 626.929 2776.9 628.092 2774.99 628.663C2769.65 630.251 2758.33 630.072 2750 628.267C2745.88 627.373 2737.32 626.21 2731 625.683C2711.35 624.047 2693.41 617.391 2672.91 604.136C2657.12 593.927 2635.65 572.339 2623.98 554.939C2612.24 537.433 2599.53 511.466 2592.52 490.698C2586.5 472.852 2579.82 446.732 2578.08 434.272C2577.48 429.958 2575.98 422.759 2574.75 418.274C2572.54 410.256 2572.5 409.157 2572.5 352.121C2572.5 295.411 2572.55 293.943 2574.71 286.121C2575.92 281.721 2577.42 274.746 2578.05 270.621C2579.61 260.357 2585.37 237.42 2589.73 224.121C2597.88 199.23 2619.3 163.364 2636 146.635C2650.84 131.773 2678.44 115.111 2699.5 108.298C2703.9 106.874 2712.9 104.489 2719.5 102.996C2726.1 101.504 2733.98 99.6983 2737 98.9833C2744.8 97.1383 2776.54 97.8183 2784 99.9903ZM126.602 181.765C121.614 184.395 105.408 199.982 97.91 209.359C91.982 216.774 76.934 245.126 71.188 259.706C67.451 269.191 61.346 294.895 60.521 304.621C60.171 308.746 58.898 316.171 57.692 321.121C55.727 329.188 55.501 332.764 55.507 355.621C55.513 377.951 55.782 382.364 57.668 391.121C58.853 396.621 60.115 406.746 60.472 413.621C60.862 421.122 62.099 430.32 63.565 436.621C64.909 442.396 66.43 451.171 66.944 456.121C68.75 473.485 81.351 518.314 95.195 556.621C106.348 587.485 121.937 617.664 143.234 649.621C158.383 672.353 160.119 674.481 182.125 697.294C199.355 715.155 205 722.311 205 726.292C205 728.279 204.495 728.621 201.56 728.621C196.869 728.621 182.52 721.143 171.985 713.208C160.265 704.38 133.702 677.117 126.593 666.621C100.889 628.671 90.616 612.419 83.875 599.043C79.695 590.751 75.478 581.526 74.503 578.543C73.529 575.561 69.933 566.366 66.512 558.11C63.091 549.854 55.967 529.829 50.682 513.61C41.047 484.046 37.788 476.756 33.284 474.704C24.952 470.908 20.067 475.659 9.72 497.621C6.74 503.946 3.334 509.978 2.151 511.026C0.017 512.916 0 513.248 0 553.102V593.272L2.445 595.569C3.79 596.832 6.77 602.198 9.068 607.494C16.444 624.489 29.245 648.793 37.053 660.625C47.955 677.146 56.772 687.2 82.75 712.728C106.583 736.147 114.056 742.007 136.5 754.869C159.812 768.229 202.373 782.37 226.064 784.627C231.513 785.146 239.69 786.589 244.236 787.832C251.439 789.803 254.875 790.092 271 790.086L289.5 790.078L305.066 785.923C323.528 780.996 330.857 777.734 337.161 771.638C342.496 766.478 344.055 761.582 341.968 756.543C340.253 752.403 336.066 749.549 326 745.657C312.081 740.277 282.624 724.873 269.684 716.21C255.947 707.012 239.539 692.652 231.517 682.806C216.28 664.106 211.644 657.356 195.437 630.273C188.596 618.842 188.301 618.233 181.521 601.621C179.164 595.846 174.693 585.961 171.584 579.655C163.972 564.21 143.829 502.865 138.244 478.121C131.905 450.031 129.839 439.978 127.97 428.121C127.017 422.071 125.396 414.196 124.368 410.621C122.616 404.526 122.5 399.325 122.5 327.121C122.5 250.823 122.52 250.048 124.705 242.121C125.917 237.721 127.423 230.746 128.051 226.621C128.679 222.496 130.495 213.748 132.088 207.18C138.25 181.769 137.059 176.251 126.602 181.765Z" fill="white"/>
</svg>
