<svg width="21" height="22" viewBox="0 0 21 22" fill="none" xmlns="http://www.w3.org/2000/svg">
<path d="M4.33984 12.9754C4.33984 12.1136 4.33984 11.6827 4.52914 11.3149C4.71844 10.947 5.06907 10.6966 5.77032 10.1957L9.32503 7.65661C9.80441 7.3142 10.0441 7.14299 10.3178 7.14299C10.5914 7.14299 10.8311 7.3142 11.3105 7.65661L14.8652 10.1957C15.5665 10.6966 15.9171 10.947 16.1064 11.3149C16.2957 11.6827 16.2957 12.1136 16.2957 12.9754V17.1954C16.2957 18.0005 16.2957 18.4031 16.0456 18.6532C15.7954 18.9034 15.3929 18.9034 14.5877 18.9034H6.04782C5.24267 18.9034 4.8401 18.9034 4.58997 18.6532C4.33984 18.4031 4.33984 18.0005 4.33984 17.1954V12.9754Z" fill="white"/>
<path d="M2.63184 11.5476C2.63184 11.7755 2.63184 11.8894 2.70365 11.9246C2.77547 11.9597 2.86542 11.8897 3.04532 11.7498L9.26915 6.90905C9.77287 6.51727 10.0247 6.32137 10.3177 6.32137C10.6108 6.32137 10.8626 6.51727 11.3663 6.90905L17.5902 11.7498C17.7701 11.8897 17.86 11.9597 17.9318 11.9246C18.0037 11.8894 18.0037 11.7755 18.0037 11.5476V11.1988C18.0037 10.7886 18.0037 10.5834 17.9168 10.4059C17.83 10.2283 17.6681 10.1024 17.3443 9.85057L11.3663 5.20108C10.8626 4.80929 10.6108 4.6134 10.3177 4.6134C10.0247 4.6134 9.77287 4.80929 9.26915 5.20107L3.29122 9.85057C2.96741 10.1024 2.80551 10.2283 2.71867 10.4059C2.63184 10.5834 2.63184 10.7886 2.63184 11.1988V11.5476Z" fill="white"/>
<path d="M10.7456 13.7793H9.89157C8.94828 13.7793 8.18359 14.544 8.18359 15.4873V18.7751C8.18359 18.8459 8.24095 18.9032 8.31169 18.9032H12.3254C12.3962 18.9032 12.4535 18.8459 12.4535 18.7751V15.4873C12.4535 14.544 11.6889 13.7793 10.7456 13.7793Z" fill="#C5B2FF"/>
<rect x="13.7344" y="5.2395" width="1.70798" height="3.41596" rx="0.426995" fill="white"/>
</svg>
