<svg width="14" height="16" viewBox="0 0 14 16" fill="none" xmlns="http://www.w3.org/2000/svg">
<path d="M12.4137 10.8427C11.5099 10.0786 10.9916 8.96195 10.9916 7.77892V6.1123C10.9916 4.00872 9.42895 2.26734 7.40484 1.97563V1.32993C7.40484 0.999367 7.13699 0.732178 6.80698 0.732178C6.47707 0.732178 6.20922 0.999367 6.20922 1.32993V1.97563C4.18445 2.26734 2.62247 4.00872 2.62247 6.1123V7.77892C2.62247 8.96195 2.10419 10.0786 1.19491 10.8474C0.962422 11.0465 0.829102 11.3358 0.829102 11.6418C0.829102 12.2188 1.29835 12.688 1.8752 12.688H11.7388C12.3157 12.688 12.785 12.2188 12.785 11.6418C12.785 11.3358 12.6516 11.0465 12.4137 10.8427Z" stroke="white" stroke-opacity="0.6" stroke-width="0.85399"/>
<path d="M6.80733 15.0792C7.86818 15.0792 8.7556 14.4618 8.95938 13.6445H4.65527C4.85916 14.4618 5.74658 15.0792 6.80733 15.0792Z" stroke="white" stroke-opacity="0.6" stroke-width="0.85399"/>
</svg>
