<svg width="26" height="27" viewBox="0 0 26 27" fill="none" xmlns="http://www.w3.org/2000/svg">
<path fill-rule="evenodd" clip-rule="evenodd" d="M13.1889 19.6066C14.6527 18.8603 20.3195 15.6189 20.3195 10.1658C20.3195 6.03887 16.974 2.69336 12.8471 2.69336C8.72021 2.69336 5.3747 6.03887 5.3747 10.1658C5.3747 15.6189 11.0415 18.8603 12.5053 19.6066C12.7221 19.7171 12.9722 19.7171 13.1889 19.6066ZM12.8471 13.3682C14.6158 13.3682 16.0496 11.9344 16.0496 10.1657C16.0496 8.39706 14.6158 6.96327 12.8471 6.96327C11.0785 6.96327 9.64468 8.39706 9.64468 10.1657C9.64468 11.9344 11.0785 13.3682 12.8471 13.3682Z" fill="#7BA3F2"/>
<path d="M19.3184 18.172C19.9742 18.6589 20.3195 19.2111 20.3195 19.7733C20.3195 20.3354 19.9742 20.8877 19.3184 21.3745C18.6626 21.8613 17.7193 22.2656 16.5833 22.5467C15.4474 22.8278 14.1588 22.9757 12.8471 22.9757C11.5354 22.9757 10.2469 22.8278 9.1109 22.5467C7.97495 22.2656 7.03165 21.8613 6.37581 21.3745C5.71997 20.8877 5.3747 20.3354 5.3747 19.7733C5.3747 19.2111 5.71997 18.6589 6.37581 18.172" stroke="#7BA3F2" stroke-width="1.70798" stroke-linecap="round"/>
</svg>
