<svg width="14" height="19" viewBox="0 0 14 19" fill="none" xmlns="http://www.w3.org/2000/svg">
<path fill-rule="evenodd" clip-rule="evenodd" d="M11.9921 0.670168H2.21823C1.11772 0.670168 0.225587 1.5623 0.225587 2.66281V15.7657C0.225215 16.0121 0.32185 16.2488 0.494594 16.4245L1.87076 17.8318C2.04121 18.0069 2.27522 18.1057 2.51962 18.1057C2.76401 18.1057 2.99802 18.0069 3.16847 17.8318L4.16479 16.8131C4.33524 16.6379 4.56925 16.5391 4.81365 16.5391C5.05804 16.5391 5.29205 16.6379 5.4625 16.8131L6.45882 17.8318C6.62966 18.0067 6.86381 18.1053 7.1083 18.1053C7.35279 18.1053 7.58694 18.0067 7.75778 17.8318L8.7541 16.8131C8.92455 16.6379 9.15856 16.5391 9.40295 16.5391C9.64735 16.5391 9.88136 16.6379 10.0518 16.8131L11.0481 17.8318C11.2186 18.0069 11.4526 18.1057 11.697 18.1057C11.9414 18.1057 12.1754 18.0069 12.3458 17.8318L13.7158 16.4282C13.89 16.2502 13.9875 16.011 13.9873 15.7619V3.25313V3.23819V2.66281C13.9873 2.1339 13.777 1.62668 13.4028 1.25292C13.0285 0.879153 12.5211 0.669506 11.9921 0.670168Z" fill="white"/>
<path fill-rule="evenodd" clip-rule="evenodd" d="M8.92891 5.0293H3.74181C3.23558 5.0293 2.8252 5.43968 2.8252 5.94591C2.8252 6.45215 3.23558 6.86253 3.74181 6.86253H8.92891C9.43514 6.86253 9.84552 6.45215 9.84552 5.94591C9.84552 5.43968 9.43514 5.0293 8.92891 5.0293ZM6.39327 8.37687H3.74181C3.23558 8.37687 2.8252 8.78725 2.8252 9.29349C2.8252 9.79972 3.23558 10.2101 3.74181 10.2101H6.39327C6.72075 10.2101 7.02335 10.0354 7.18708 9.75179C7.35082 9.46819 7.35082 9.11878 7.18708 8.83518C7.02335 8.55158 6.72075 8.37687 6.39327 8.37687Z" fill="#7BA3F2"/>
</svg>
