<svg width="24" height="24" viewBox="0 0 24 24" fill="none" xmlns="http://www.w3.org/2000/svg">
<path fill-rule="evenodd" clip-rule="evenodd" d="M12 1.48438C11.3425 1.48438 10.7706 1.90595 9.62667 2.74911L7.90576 4.01757C7.72555 4.1504 7.63545 4.21681 7.53871 4.27266C7.44198 4.32851 7.33941 4.37334 7.13427 4.46299L5.1753 5.31911C3.87315 5.88819 3.22208 6.17272 2.89336 6.74208C2.56464 7.31144 2.64376 8.01756 2.802 9.42979L3.04006 11.5544C3.06499 11.7768 3.07745 11.8881 3.07745 11.9998C3.07745 12.1115 3.06499 12.2227 3.04006 12.4452L2.802 14.5698C2.64376 15.982 2.56464 16.6881 2.89336 17.2575C3.22208 17.8269 3.87315 18.1114 5.1753 18.6805L7.13427 19.5366C7.33941 19.6262 7.44198 19.6711 7.53871 19.7269C7.63545 19.7828 7.72555 19.8492 7.90576 19.982L9.62667 21.2505C10.7706 22.0936 11.3425 22.5152 12 22.5152C12.6574 22.5152 13.2294 22.0936 14.3733 21.2505L14.3733 21.2505L16.0942 19.982C16.2744 19.8492 16.3645 19.7828 16.4612 19.7269C16.558 19.6711 16.6605 19.6262 16.8657 19.5366L18.8246 18.6805C20.1268 18.1114 20.7779 17.8269 21.1066 17.2575C21.4353 16.6881 21.3562 15.982 21.1979 14.5698L20.9599 12.4452L20.9599 12.4452C20.935 12.2227 20.9225 12.1115 20.9225 11.9998C20.9225 11.8881 20.9349 11.7769 20.9599 11.5544L20.9599 11.5544L21.1979 9.42979C21.3562 8.01756 21.4353 7.31144 21.1066 6.74208C20.7779 6.17272 20.1268 5.88819 18.8246 5.31911L16.8657 4.46299L16.8657 4.46298C16.6605 4.37334 16.558 4.32851 16.4612 4.27266C16.3645 4.21681 16.2744 4.1504 16.0942 4.01757L14.3733 2.74911C13.2294 1.90595 12.6574 1.48438 12 1.48438ZM12 15.9998C14.2091 15.9998 16 14.2089 16 11.9998C16 9.79065 14.2091 7.99979 12 7.99979C9.79083 7.99979 7.99997 9.79065 7.99997 11.9998C7.99997 14.2089 9.79083 15.9998 12 15.9998Z" fill="white"/>
</svg>
