<svg width="20" height="14" viewBox="0 0 20 14" fill="none" xmlns="http://www.w3.org/2000/svg">
<path fill-rule="evenodd" clip-rule="evenodd" d="M14.1545 12.2751L13.4201 11.5406C12.3561 12.1196 11.1994 12.5 10.0007 12.5C8.32891 12.5 6.73889 11.7599 5.36787 10.7735C4.00079 9.78999 2.89379 8.5918 2.19865 7.74783C1.7743 7.23261 1.73047 7.1435 1.73047 7C1.73047 6.8565 1.7743 6.76739 2.19865 6.25217C2.86794 5.43958 3.91904 4.29863 5.21645 3.33704L4.50212 2.62271C3.17064 3.63072 2.10457 4.79349 1.42677 5.61641L1.36796 5.68758C1.03744 6.08699 0.730469 6.45793 0.730469 7C0.730469 7.54207 1.03744 7.91301 1.36796 8.31242L1.42677 8.38359C2.15172 9.26377 3.32087 10.5327 4.78385 11.5853C6.24289 12.635 8.03684 13.5 10.0007 13.5C11.5108 13.5 12.9204 12.9886 14.1545 12.2751ZM7.19066 1.06861C8.07053 0.718282 9.01419 0.5 10.0007 0.5C11.9646 0.5 13.7586 1.365 15.2176 2.41472C16.6806 3.46727 17.8498 4.73623 18.5747 5.61641L18.6335 5.68758C18.9641 6.08699 19.271 6.45793 19.271 7C19.271 7.54206 18.9641 7.91301 18.6335 8.31242L18.5747 8.38359C18.0943 8.96693 17.4187 9.72103 16.5918 10.4697L15.8838 9.76171C16.6794 9.04561 17.3346 8.31635 17.8028 7.74783C18.2272 7.23261 18.271 7.1435 18.271 7C18.271 6.8565 18.2272 6.76739 17.8028 6.25217C17.1077 5.4082 16.0007 4.21001 14.6336 3.22646C13.2626 2.24007 11.6726 1.5 10.0007 1.5C9.30634 1.5 8.62605 1.62768 7.9697 1.84765L7.19066 1.06861Z" fill="white" fill-opacity="0.6"/>
</svg>
